<svg xmlns="http://www.w3.org/2000/svg" viewBox="0 0 120 120" width="120" height="120">
  <defs>
    <!-- tile backgrounds -->
    <linearGradient id="ic-bg" x1="0" y1="0" x2=".6" y2="1">
      <stop offset="0%"   stop-color="#16140f"/>
      <stop offset="100%" stop-color="#0a0908"/>
    </linearGradient>
    <radialGradient id="ic-glow" cx="50%" cy="18%" r="70%">
      <stop offset="0%"   stop-color="#9ed94a1a"/>
      <stop offset="100%" stop-color="rgba(0,0,0,0)"/>
    </radialGradient>
    <linearGradient id="ic-shine" x1="0" y1="0" x2="0" y2="1">
      <stop offset="0%"   stop-color="rgba(255,255,255,.06)"/>
      <stop offset="100%" stop-color="rgba(255,255,255,0)"/>
    </linearGradient>
    <!-- mark gradient -->
    <linearGradient id="ic-mg" x1="0" y1="0" x2="1" y2="1">
      <stop offset="0%"   stop-color="#D2F58F"/>
      <stop offset="55%"  stop-color="#8FD13F"/>
      <stop offset="100%" stop-color="#4C8A1B"/>
    </linearGradient>
    <clipPath id="ic-mc">
      <rect x="12" y="10" width="40" height="44" rx="10"/>
    </clipPath>
    <filter id="ic-drop" x="-30%" y="-30%" width="160%" height="160%">
      <feGaussianBlur in="SourceGraphic" stdDeviation="2.5" result="blur"/>
      <feComposite in="SourceGraphic" in2="blur" operator="over"/>
    </filter>
  </defs>

  <!-- tile base -->
  <rect width="120" height="120" rx="28" fill="url(#ic-bg)"    stroke="rgba(255,255,255,.08)" stroke-width="1"/>
  <!-- accent glow overlay -->
  <rect width="120" height="120" rx="28" fill="url(#ic-glow)"/>
  <!-- top-edge shine -->
  <rect width="120" height="60"  rx="28" fill="url(#ic-shine)"/>

  <!-- mark: size=78, centred → offset=(120-78)/2=21 -->
  <svg x="21" y="21" width="78" height="78" viewBox="0 0 64 64">
    <defs>
      <linearGradient id="ic-mg2" x1="0" y1="0" x2="1" y2="1">
        <stop offset="0%"   stop-color="#D2F58F"/>
        <stop offset="55%"  stop-color="#8FD13F"/>
        <stop offset="100%" stop-color="#4C8A1B"/>
      </linearGradient>
      <clipPath id="ic-mc2">
        <rect x="12" y="10" width="40" height="44" rx="10"/>
      </clipPath>
    </defs>
    <g filter="url(#ic-drop)">
      <rect x="12" y="10" width="40" height="44" rx="10" fill="url(#ic-mg2)"/>
      <g clip-path="url(#ic-mc2)">
        <polygon points="12,10 32,10 12,30" fill="#fff" opacity=".15"/>
        <polygon points="52,54 52,34 32,54" fill="#000" opacity=".17"/>
      </g>
      <path d="M26 10 L38 10 L38 33 L32 28 L26 33 Z" fill="#000" opacity=".26"/>
      <rect x="19" y="42" width="26" height="3" rx="1.5" fill="#000" opacity=".24"/>
      <rect x="19" y="48" width="17" height="3" rx="1.5" fill="#000" opacity=".24"/>
    </g>
  </svg>
</svg>
